<svg width="40" height="40" viewBox="0 0 40 40" fill="none" xmlns="http://www.w3.org/2000/svg">
<path d="M29.1723 0H10.8276C4.85717 0 0 4.85717 0 10.8276V29.1726C0 35.1428 4.85717 39.9999 10.8276 39.9999H29.1726C35.1428 39.9999 39.9999 35.1428 39.9999 29.1726V10.8276C39.9999 4.85717 35.1428 0 29.1723 0V0ZM37.655 29.1726C37.655 33.8497 33.8497 37.655 29.1723 37.655H10.8276C6.1502 37.655 2.34497 33.8497 2.34497 29.1726V10.8276C2.34497 6.1502 6.1502 2.34497 10.8276 2.34497H29.1726C33.8497 2.34497 37.655 6.1502 37.655 10.8276V29.1726Z" fill="#897F7D"/>
<path d="M19.9999 9.06281C13.969 9.06281 9.06274 13.9691 9.06274 20C9.06274 26.0309 13.969 30.9372 19.9999 30.9372C26.0308 30.9372 30.9371 26.0309 30.9371 20C30.9371 13.9691 26.0308 9.06281 19.9999 9.06281ZM19.9999 28.5922C15.2624 28.5922 11.4077 24.7378 11.4077 20C11.4077 15.2624 15.2624 11.4078 19.9999 11.4078C24.7378 11.4078 28.5921 15.2624 28.5921 20C28.5921 24.7378 24.7378 28.5922 19.9999 28.5922Z" fill="#897F7D"/>
<path d="M31.1986 5.17853C29.4164 5.17853 27.9668 6.62842 27.9668 8.41033C27.9668 10.1926 29.4164 11.6424 31.1986 11.6424C32.9808 11.6424 34.4307 10.1926 34.4307 8.41033C34.4307 6.62811 32.9808 5.17853 31.1986 5.17853ZM31.1986 9.29717C30.7097 9.29717 30.3118 8.89922 30.3118 8.41033C30.3118 7.92114 30.7097 7.52349 31.1986 7.52349C31.6878 7.52349 32.0857 7.92114 32.0857 8.41033C32.0857 8.89922 31.6878 9.29717 31.1986 9.29717Z" fill="#897F7D"/>
</svg>
