<svg width="50" height="50" viewBox="0 0 50 50" fill="none" xmlns="http://www.w3.org/2000/svg">
<path d="M36.4654 0H13.5345C6.07146 0 0 6.07146 0 13.5345V36.4658C0 43.9284 6.07146 49.9999 13.5345 49.9999H36.4658C43.9284 49.9999 49.9999 43.9284 49.9999 36.4658V13.5345C49.9999 6.07146 43.9284 0 36.4654 0V0ZM47.0687 36.4658C47.0687 42.3122 42.3122 47.0687 36.4654 47.0687H13.5345C7.68774 47.0687 2.93121 42.3122 2.93121 36.4658V13.5345C2.93121 7.68774 7.68774 2.93121 13.5345 2.93121H36.4658C42.3122 2.93121 47.0687 7.68774 47.0687 13.5345V36.4658Z" fill="#5F4832"/>
<path d="M24.9998 11.3285C17.4612 11.3285 11.3284 17.4614 11.3284 25C11.3284 32.5385 17.4612 38.6714 24.9998 38.6714C32.5384 38.6714 38.6713 32.5385 38.6713 25C38.6713 17.4614 32.5384 11.3285 24.9998 11.3285V11.3285ZM24.9998 35.7402C19.0779 35.7402 14.2596 30.9223 14.2596 25C14.2596 19.078 19.0779 14.2597 24.9998 14.2597C30.9221 14.2597 35.7401 19.078 35.7401 25C35.7401 30.9223 30.9221 35.7402 24.9998 35.7402V35.7402Z" fill="#5F4832"/>
<path d="M38.9983 6.47314C36.7705 6.47314 34.9585 8.2855 34.9585 10.5129C34.9585 12.7407 36.7705 14.553 38.9983 14.553C41.226 14.553 43.0384 12.7407 43.0384 10.5129C43.0384 8.28512 41.226 6.47314 38.9983 6.47314ZM38.9983 11.6214C38.3871 11.6214 37.8897 11.124 37.8897 10.5129C37.8897 9.90141 38.3871 9.40435 38.9983 9.40435C39.6097 9.40435 40.1072 9.90141 40.1072 10.5129C40.1072 11.124 39.6097 11.6214 38.9983 11.6214Z" fill="#5F4832"/>
</svg>
