<svg width="204" height="122" viewBox="0 0 204 122" fill="none" xmlns="http://www.w3.org/2000/svg">
<path d="M5.55 121.05C3.35 119.75 1.95 118.35 1.35 116.85C0.75 115.45 0.45 114.25 0.45 113.25C0.45 110.45 1.45 106.65 3.45 101.85C5.55 97.05 8.3 91.6 11.7 85.5C15.2 79.3 19.05 72.9 23.25 66.3C19.55 66 16.4 65.8 13.8 65.7C11.2 65.6 8.95 65.55 7.05 65.55H1.8C2.9 62.65 4.8 60.65 7.5 59.55C10.3 58.35 13.6 57.75 17.4 57.75C19.1 57.75 20.85 57.85 22.65 58.05C24.45 58.25 26.3 58.5 28.2 58.8C33.3 51.1 38.5 43.65 43.8 36.45C49.2 29.15 54.2 22.7 58.8 17.1C63.5 11.4 67.4 7.09999 70.5 4.2C73.4 1.4 75.8 -4.29153e-06 77.7 -4.29153e-06C79.8 -4.29153e-06 82.45 1.6 85.65 4.8C84.65 5.6 83.35 7.75 81.75 11.25C80.25 14.65 78.6 18.95 76.8 24.15C75.1 29.35 73.4 35.05 71.7 41.25C70 47.45 68.4 53.8 66.9 60.3C65.5 66.7 64.35 72.8 63.45 78.6C62.65 84.4 62.25 89.5 62.25 93.9C62.25 97.7 62.65 100.65 63.45 102.75C64.35 104.85 65.8 105.9 67.8 105.9C70.4 105.9 73.35 104.1 76.65 100.5C79.95 96.9 83.55 91.3 87.45 83.7L88.95 85.2C85.95 93.2 82.1 99.75 77.4 104.85C72.8 109.95 68 112.5 63 112.5C58.9 112.5 55.9 110.7 54 107.1C52.2 103.4 51.3 98.5 51.3 92.4C51.3 86 52.15 78.55 53.85 70.05C49.45 69.35 45.4 68.8 41.7 68.4C38.1 67.9 34.75 67.45 31.65 67.05C26.95 75.75 22.35 84.7 17.85 93.9C13.45 103.1 9.35 112.15 5.55 121.05ZM54.9 64.8C56.4 58.2 58.15 51.55 60.15 44.85C62.15 38.05 64.25 31.6 66.45 25.5C68.75 19.4 70.9 14.05 72.9 9.45C69.8 11.35 66.2 14.75 62.1 19.65C58.1 24.45 53.85 30.35 49.35 37.35C44.85 44.25 40.25 51.85 35.55 60.15C38.95 60.85 42.3 61.65 45.6 62.55C49 63.35 52.1 64.1 54.9 64.8ZM89.2195 121.05C89.8195 119.65 91.4695 115.95 94.1695 109.95C96.8695 104.05 100.37 96.35 104.67 86.85C109.07 77.25 113.97 66.4 119.37 54.3C124.87 42.1 130.67 29.2 136.77 15.6C137.07 14.9 137.37 14 137.67 12.9C138.07 11.7 138.27 10.55 138.27 9.45C138.27 8.35 137.92 7.45 137.22 6.75C136.62 5.95 135.27 5.55 133.17 5.55C128.97 5.55 125.47 6.99999 122.67 9.89999C119.97 12.7 117.92 16.2 116.52 20.4C115.22 24.6 114.57 28.75 114.57 32.85C114.57 33.85 114.57 34.7 114.57 35.4C114.67 36.1 114.77 36.8 114.87 37.5C112.97 37.5 111.42 36.85 110.22 35.55C109.12 34.15 108.27 32.5 107.67 30.6C107.17 28.6 106.92 26.8 106.92 25.2C106.92 21.9 107.82 18.75 109.62 15.75C111.42 12.75 113.72 10.05 116.52 7.65C119.42 5.25 122.57 3.4 125.97 2.1C129.47 0.699996 132.87 -4.29153e-06 136.17 -4.29153e-06C139.47 -4.29153e-06 142.22 0.949995 144.42 2.84999C146.72 4.65 148.42 7.94999 149.52 12.75C150.72 17.55 151.32 24.5 151.32 33.6C151.32 39.8 151.07 46.4 150.57 53.4C150.17 60.4 149.72 67.3 149.22 74.1C148.72 80.9 148.37 87.1 148.17 92.7C149.77 86.6 152.02 80.1 154.92 73.2C157.92 66.3 161.17 59.45 164.67 52.65C168.27 45.75 171.82 39.3 175.32 33.3C178.82 27.3 181.97 22.1 184.77 17.7C187.57 13.3 189.62 10.1 190.92 8.1C192.32 6.09999 193.52 4.59999 194.52 3.59999C195.52 2.5 196.82 1.95 198.42 1.95C199.82 1.95 201.42 2.3 203.22 2.99999C202.52 4.79999 201.52 7.49999 200.22 11.1C199.02 14.6 197.77 18.9 196.47 24C194.87 30.1 193.27 37.05 191.67 44.85C190.07 52.55 188.57 60.4 187.17 68.4C185.87 76.4 184.82 83.95 184.02 91.05C183.22 98.05 182.82 103.95 182.82 108.75C182.82 110.95 182.92 112.65 183.12 113.85C183.32 115.05 183.57 116.1 183.87 117C184.27 118 184.67 119.35 185.07 121.05C179.87 121.05 176.52 119.75 175.02 117.15C173.52 114.65 172.77 110.35 172.77 104.25C172.77 92.35 174.27 79.6 177.27 66C180.37 52.3 183.87 38.1 187.77 23.4C184.87 27.1 181.82 31.8 178.62 37.5C175.52 43.1 172.37 49.2 169.17 55.8C166.07 62.3 163.07 68.85 160.17 75.45C157.37 81.95 154.87 88 152.67 93.6C150.47 99.2 148.77 103.85 147.57 107.55C146.97 107.75 146.57 107.9 146.37 108C146.17 108.1 145.82 108.15 145.32 108.15C142.62 108.15 140.82 106.55 139.92 103.35C139.12 100.15 138.72 95.65 138.72 89.85C138.72 85.75 138.82 80.9 139.02 75.3C139.32 69.6 139.62 63.75 139.92 57.75C140.22 51.75 140.47 46 140.67 40.5C140.97 34.9 141.12 30.1 141.12 26.1C141.12 24.1 141.07 22.45 140.97 21.15C140.97 19.85 140.92 18.7 140.82 17.7C132.82 36.3 126.12 52.2 120.72 65.4C115.32 78.5 110.77 89.15 107.07 97.35C103.47 105.55 100.27 111.55 97.4695 115.35C94.6695 119.15 91.9195 121.05 89.2195 121.05Z" fill="#5F4832"/>
</svg>
