<svg width="40" height="40" viewBox="0 0 40 40" fill="none" xmlns="http://www.w3.org/2000/svg">
<path d="M0.691035 18.6599L10.4727 23.5349C10.851 23.7216 11.2977 23.7083 11.6594 23.4966L20.366 18.4349L15.096 23.1049C14.8277 23.3433 14.6744 23.6833 14.6744 24.0416V35.4166C14.6744 36.6166 16.206 37.1216 16.9244 36.1683L21.1527 30.5466L31.6094 36.5016C32.3427 36.9233 33.2827 36.4999 33.4527 35.6616L39.9744 3.1616C40.1694 2.18493 39.1977 1.38826 38.2944 1.7516L0.794368 16.3766C-0.212298 16.7699 -0.277298 18.1783 0.691035 18.6599ZM37.0744 4.9116L31.3427 33.4733L21.4344 27.8299C20.8944 27.5216 20.1994 27.6583 19.816 28.1649L17.1744 31.6766V24.6033L31.426 11.9766C32.5544 10.9783 31.2577 9.20326 29.9694 9.95993L10.986 20.9966L4.3327 17.6816L37.0744 4.9116Z" fill="#DDD4D1"/>
</svg>
