<svg width="50" height="50" viewBox="0 0 50 50" fill="none" xmlns="http://www.w3.org/2000/svg">
<g clip-path="url(#clip0)">
<path d="M39.5158 30.9733C38.4921 29.9075 37.2575 29.3376 35.9489 29.3376C34.6509 29.3376 33.4057 29.8969 32.3398 30.9628L29.0051 34.2869C28.7308 34.1392 28.4564 34.002 28.1926 33.8648C27.8127 33.6749 27.4539 33.4955 27.1478 33.3055C24.0242 31.3216 21.1855 28.7361 18.4628 25.3909C17.1437 23.7235 16.2573 22.32 15.6136 20.8954C16.4789 20.1039 17.2809 19.2808 18.0618 18.4893C18.3573 18.1938 18.6528 17.8878 18.9483 17.5923C21.1644 15.3762 21.1644 12.5059 18.9483 10.2898L16.0674 7.40883C15.7402 7.08169 15.4025 6.744 15.0859 6.40631C14.4528 5.75203 13.7879 5.07665 13.102 4.44348C12.0784 3.43041 10.8543 2.89221 9.5668 2.89221C8.27936 2.89221 7.03412 3.43041 5.97884 4.44348C5.96829 4.45403 5.96829 4.45403 5.95773 4.46459L2.36977 8.08421C1.019 9.43497 0.248646 11.0812 0.0798003 12.9913C-0.173468 16.0727 0.734076 18.9431 1.43056 20.8215C3.14012 25.4331 5.69391 29.707 9.50349 34.2869C14.1256 39.8061 19.687 44.1644 26.0398 47.2353C28.4669 48.3855 31.7067 49.7468 35.3263 49.979C35.5479 49.9895 35.7801 50.0001 35.9911 50.0001C38.4288 50.0001 40.4761 49.1242 42.0801 47.383C42.0907 47.3619 42.1118 47.3513 42.1223 47.3302C42.6711 46.6654 43.3042 46.0639 43.9691 45.4202C44.4228 44.9875 44.8872 44.5337 45.3409 44.0588C46.3857 42.9719 46.9344 41.7056 46.9344 40.4076C46.9344 39.099 46.3751 37.8432 45.3093 36.7879L39.5158 30.9733ZM43.2937 42.0855C43.2831 42.0855 43.2831 42.096 43.2937 42.0855C42.8821 42.5287 42.46 42.9297 42.0062 43.3729C41.3203 44.0272 40.6238 44.7131 39.9695 45.4835C38.9037 46.6232 37.6479 47.1614 36.0017 47.1614C35.8434 47.1614 35.6745 47.1614 35.5162 47.1508C32.382 46.9503 29.4695 45.7262 27.285 44.6815C21.3121 41.79 16.0674 37.6849 11.709 32.4824C8.11051 28.1452 5.70447 24.1351 4.11099 19.8295C3.12957 17.2019 2.77077 15.1546 2.92907 13.2234C3.0346 11.9888 3.50947 10.9651 4.38536 10.0893L7.98388 6.49073C8.50097 6.0053 9.04972 5.74148 9.58791 5.74148C10.2527 5.74148 10.7909 6.14249 11.1286 6.48018C11.1392 6.49073 11.1497 6.50128 11.1603 6.51184C11.804 7.11335 12.4161 7.73597 13.0598 8.4008C13.3869 8.73849 13.7246 9.07618 14.0623 9.42442L16.9432 12.3053C18.0618 13.4239 18.0618 14.4581 16.9432 15.5767C16.6372 15.8828 16.3417 16.1888 16.0357 16.4843C15.1493 17.3918 14.305 18.236 13.3869 19.0592C13.3658 19.0803 13.3447 19.0908 13.3342 19.1119C12.4266 20.0195 12.5955 20.9059 12.7854 21.5074C12.796 21.5391 12.8065 21.5707 12.8171 21.6024C13.5663 23.4175 14.6216 25.1271 16.2256 27.1637L16.2362 27.1743C19.1488 30.7623 22.2197 33.5588 25.6071 35.701C26.0398 35.9754 26.483 36.197 26.9051 36.408C27.285 36.598 27.6438 36.7774 27.9499 36.9673C27.9921 36.9884 28.0343 37.0201 28.0765 37.0412C28.4353 37.2206 28.773 37.305 29.1212 37.305C29.9971 37.305 30.5459 36.7563 30.7253 36.5769L34.3343 32.9678C34.6931 32.609 35.263 32.1763 35.9278 32.1763C36.5821 32.1763 37.1203 32.5879 37.4474 32.9467C37.458 32.9573 37.458 32.9573 37.4685 32.9678L43.2831 38.7824C44.3701 39.8588 44.3701 40.9669 43.2937 42.0855Z" fill="#5F4832"/>
<path d="M27.021 11.8938C29.7859 12.3581 32.2975 13.6666 34.3025 15.6717C36.3075 17.6767 37.6055 20.1883 38.0804 22.9531C38.1965 23.6496 38.798 24.1351 39.4839 24.1351C39.5684 24.1351 39.6422 24.1245 39.7267 24.1139C40.5076 23.9873 41.0247 23.2486 40.898 22.4677C40.3282 19.1225 38.7452 16.0727 36.3286 13.6561C33.912 11.2395 30.8623 9.65655 27.517 9.0867C26.7361 8.96007 26.008 9.47716 25.8708 10.2475C25.7336 11.0179 26.2401 11.7671 27.021 11.8938Z" fill="#5F4832"/>
<path d="M49.942 22.0563C49.0028 16.5477 46.4068 11.5351 42.4178 7.54614C38.4289 3.55717 33.4163 0.961166 27.9077 0.0219635C27.1373 -0.115224 26.4092 0.412419 26.272 1.18278C26.1454 1.96369 26.6624 2.69183 27.4434 2.82902C32.361 3.66269 36.8459 5.99487 40.4128 9.55118C43.9797 13.118 46.3013 17.603 47.135 22.5206C47.251 23.2171 47.8526 23.7025 48.5385 23.7025C48.6229 23.7025 48.6968 23.692 48.7812 23.6814C49.5516 23.5654 50.0792 22.8267 49.942 22.0563Z" fill="#5F4832"/>
</g>
<defs>
<clipPath id="clip0">
<rect width="50" height="50" fill="white"/>
</clipPath>
</defs>
</svg>
