<?xml version="1.0" standalone="no"?>
<!DOCTYPE svg PUBLIC "-//W3C//DTD SVG 20010904//EN"
 "http://www.w3.org/TR/2001/REC-SVG-20010904/DTD/svg10.dtd">
<svg version="1.0" xmlns="http://www.w3.org/2000/svg"
 width="1632.000000pt" height="1632.000000pt" viewBox="0 0 1632.000000 1632.000000"
 preserveAspectRatio="xMidYMid meet">
<metadata>
Created by potrace 1.14, written by Peter Selinger 2001-2017
</metadata>
<g transform="translate(0.000000,1632.000000) scale(0.100000,-0.100000)"
fill="#000000" stroke="none">
<path d="M6081 13014 c-68 -25 -151 -70 -163 -88 -4 -6 -8 -7 -8 -3 0 7 -62
-35 -80 -53 -3 -3 -30 -25 -60 -50 -69 -57 -194 -175 -325 -310 -121 -123
-124 -127 -333 -358 -20 -23 -72 -83 -132 -152 -12 -14 -38 -45 -58 -69 -21
-24 -44 -51 -52 -60 -9 -9 -33 -38 -55 -66 -22 -27 -42 -52 -46 -55 -3 -3 -28
-32 -55 -65 -26 -33 -52 -64 -56 -70 -5 -5 -18 -22 -31 -36 -12 -14 -31 -38
-42 -53 -11 -15 -30 -38 -41 -51 -12 -13 -37 -44 -55 -69 -18 -25 -36 -46 -41
-46 -4 0 -8 -7 -8 -15 0 -8 -4 -15 -8 -15 -4 0 -25 -23 -46 -51 -21 -28 -44
-58 -51 -67 -23 -28 -118 -148 -142 -179 -12 -15 -29 -37 -37 -48 -9 -11 -38
-49 -66 -85 -28 -36 -58 -75 -68 -87 -9 -13 -25 -33 -35 -45 -9 -13 -119 -158
-242 -323 -124 -165 -232 -309 -241 -320 -14 -18 -103 -141 -138 -190 -8 -11
-66 -91 -128 -177 -62 -86 -120 -166 -128 -178 -16 -24 -84 -118 -97 -135 -4
-6 -33 -46 -62 -90 -30 -44 -59 -81 -63 -83 -4 -2 -8 -8 -8 -13 0 -6 -4 -15
-10 -22 -16 -19 -108 -151 -189 -272 -41 -60 -77 -112 -80 -115 -3 -3 -82
-119 -176 -258 l-169 -253 -56 6 c-30 3 -66 8 -80 10 -42 8 -82 13 -140 20
-30 3 -66 8 -80 10 -26 5 -108 14 -170 20 -19 2 -102 7 -185 10 -82 4 -152 7
-155 7 -3 0 -7 0 -10 -1 -3 -1 -59 -4 -125 -7 -66 -2 -136 -6 -155 -9 -122
-15 -280 -49 -342 -74 -16 -6 -28 -9 -28 -6 0 2 -47 -15 -103 -39 -131 -54
-227 -118 -303 -200 -82 -90 -87 -97 -143 -208 -33 -65 -37 -78 -23 -79 9 0
197 -2 417 -5 220 -2 438 -6 485 -8 47 -3 141 -7 210 -11 69 -3 148 -7 175 -9
28 -2 100 -7 160 -11 61 -4 128 -9 150 -10 22 -2 52 -4 68 -4 15 -1 27 -5 27
-10 0 -11 -59 -110 -77 -129 -7 -7 -13 -19 -13 -27 0 -7 -3 -15 -8 -17 -6 -3
-147 -223 -162 -253 -5 -9 -56 -91 -88 -141 -6 -10 -15 -26 -19 -34 -4 -8 -10
-17 -13 -20 -6 -4 -51 -80 -98 -165 -9 -16 -20 -32 -23 -35 -3 -3 -9 -12 -13
-20 -4 -8 -12 -24 -19 -35 -7 -11 -39 -65 -71 -120 -33 -55 -65 -107 -72 -115
-7 -8 -16 -28 -20 -43 -3 -16 -13 -31 -20 -34 -8 -3 -14 -9 -14 -14 0 -12
-173 -313 -182 -317 -5 -2 -8 -12 -8 -22 0 -10 -5 -22 -11 -25 -5 -4 -15 -17
-20 -28 -6 -12 -20 -40 -32 -62 -69 -124 -148 -275 -147 -281 1 -4 -2 -10 -7
-13 -5 -3 -33 -53 -63 -111 -29 -58 -61 -120 -71 -137 -10 -18 -15 -33 -11
-33 4 0 3 -4 -3 -8 -13 -9 -90 -164 -87 -174 1 -5 -2 -8 -8 -8 -5 0 -10 -4
-10 -10 0 -5 -25 -63 -56 -127 -72 -150 -109 -235 -113 -255 -1 -5 -10 -24
-21 -43 -11 -20 -20 -40 -20 -46 0 -6 -11 -35 -25 -65 -14 -30 -25 -59 -25
-63 0 -5 -9 -31 -20 -57 -11 -26 -22 -54 -23 -63 -1 -9 -6 -22 -10 -28 -5 -7
-6 -13 -2 -13 3 0 1 -9 -5 -21 -11 -20 -57 -182 -65 -229 -2 -14 -7 -36 -10
-50 -7 -31 -16 -84 -20 -130 -2 -19 -4 -37 -5 -40 -1 -3 -2 -37 -2 -76 -1 -72
23 -190 50 -254 9 -19 15 -38 14 -42 -1 -5 2 -8 8 -8 6 0 9 -3 8 -7 -5 -20 49
-100 110 -161 60 -61 167 -143 206 -158 12 -4 26 20 40 66 4 11 47 106 56 122
6 10 10 24 10 32 0 8 7 22 16 30 8 9 13 16 10 16 -4 0 36 96 99 235 7 17 50
113 95 215 91 206 106 238 161 359 22 46 39 90 39 97 0 8 4 14 9 14 5 0 13 10
16 23 7 22 29 71 88 197 17 36 30 68 29 73 -1 4 2 7 8 7 6 0 9 3 8 8 -3 12 13
52 21 52 4 0 8 6 8 13 0 12 72 169 123 270 17 31 30 59 30 62 0 3 29 64 64
137 165 344 219 454 230 460 6 4 8 8 4 8 -4 0 22 58 58 130 36 71 64 133 64
136 -1 4 2 10 7 13 14 10 45 71 36 71 -4 0 -3 4 2 8 6 4 36 57 66 117 31 61
66 130 79 155 12 25 27 54 33 65 6 11 22 43 35 70 13 28 36 70 50 95 15 24 27
49 28 55 1 5 20 43 42 83 23 40 44 82 47 92 4 11 10 20 14 20 4 0 8 6 8 13 0
6 19 45 42 86 22 41 41 80 41 87 0 8 4 14 8 14 4 0 15 15 23 33 33 71 105 202
114 209 6 4 6 8 1 8 -5 0 -4 6 2 13 11 14 32 51 88 157 38 73 52 92 64 85 3
-1 32 -6 65 -9 33 -4 69 -9 80 -12 11 -2 40 -6 65 -9 25 -3 61 -7 80 -10 19
-3 55 -8 80 -10 25 -2 45 -4 45 -5 0 -1 20 -4 45 -6 47 -5 85 -11 85 -14 0 -1
16 -3 35 -5 36 -3 106 -12 150 -19 14 -3 50 -7 80 -10 30 -4 66 -8 80 -10 14
-3 52 -7 85 -10 33 -3 71 -8 85 -11 14 -3 50 -7 80 -10 30 -2 98 -11 150 -19
52 -8 118 -17 145 -21 28 -3 66 -9 85 -12 19 -3 43 -6 53 -7 9 0 17 -3 17 -6
0 -3 17 -6 38 -6 79 -3 131 -18 128 -37 -2 -7 -6 -30 -11 -52 -4 -22 -9 -49
-12 -60 -17 -88 -24 -124 -29 -150 -2 -16 -9 -55 -14 -85 -5 -30 -12 -71 -15
-90 -3 -19 -9 -48 -12 -65 -3 -16 -7 -50 -9 -75 -1 -25 -3 -45 -4 -45 -3 0
-11 -49 -24 -150 -14 -102 -24 -187 -31 -260 -3 -33 -8 -84 -11 -114 -36 -320
-35 -899 1 -1131 11 -73 16 -108 19 -135 13 -95 68 -300 106 -390 7 -16 16
-39 19 -50 24 -69 110 -216 159 -270 96 -106 257 -205 374 -229 13 -3 34 -7
48 -10 34 -8 148 -18 185 -17 46 2 147 10 170 15 11 2 40 7 65 12 52 9 43 7
100 23 25 7 50 16 55 19 6 4 15 7 22 8 21 3 158 68 161 76 2 5 9 8 15 8 24 0
241 145 289 193 9 9 20 17 23 17 10 0 260 254 321 325 98 114 304 385 304 399
0 2 23 37 50 79 27 42 50 78 50 81 0 3 13 24 29 48 31 48 89 152 134 243 16
33 35 63 41 67 6 4 7 8 3 8 -5 0 5 26 22 58 52 99 109 230 103 236 -3 3 0 6 6
6 7 0 12 6 12 14 0 7 10 35 22 62 12 27 23 51 23 54 2 6 9 26 34 89 l17 45
-59 59 c-46 46 -61 56 -68 46 -5 -8 -30 -54 -56 -104 -25 -49 -54 -103 -63
-120 -9 -16 -32 -57 -50 -90 -63 -114 -154 -270 -172 -294 -10 -13 -16 -27
-13 -31 3 -4 -2 -11 -11 -14 -8 -3 -13 -10 -10 -15 4 -5 3 -11 -2 -13 -4 -1
-27 -34 -51 -73 -24 -38 -48 -71 -53 -73 -4 -2 -8 -8 -8 -13 0 -13 -87 -141
-122 -180 -10 -10 -16 -19 -12 -19 4 0 -47 -67 -97 -128 -6 -7 -33 -41 -62
-75 -79 -97 -254 -268 -337 -331 -108 -81 -123 -91 -158 -106 -13 -5 -47 -21
-75 -34 -52 -23 -100 -37 -147 -42 -49 -5 -115 -5 -137 0 -13 3 -32 8 -44 11
-38 8 -104 53 -146 98 -49 53 -88 126 -108 202 -7 30 -16 59 -19 64 -3 5 -8
24 -10 42 -3 19 -9 55 -14 80 -5 25 -8 57 -8 72 1 15 -1 27 -4 27 -6 0 -6 4
-13 177 -3 67 -8 127 -11 132 -4 5 -2 12 4 16 7 4 7 12 0 25 -6 11 -6 21 -1
24 10 7 9 25 -2 44 -5 6 -5 12 0 12 4 0 8 51 9 113 0 61 4 162 8 222 4 61 8
135 10 165 2 30 7 82 10 115 9 81 17 163 21 205 1 19 5 53 8 75 3 22 9 65 12
96 3 31 7 65 9 75 2 11 7 42 10 69 8 58 10 69 30 190 9 50 18 108 21 130 4 22
8 47 10 55 2 8 7 33 10 55 3 23 8 52 11 65 3 14 7 38 9 54 2 15 7 35 9 45 6
17 11 46 21 121 4 24 8 47 10 50 2 3 6 26 10 50 3 25 8 53 11 62 6 20 12 51
20 98 7 41 12 63 14 70 1 3 2 8 2 11 0 3 4 23 9 45 5 21 25 114 44 205 19 92
38 177 43 190 4 13 8 31 7 39 -1 8 1 20 4 25 3 6 6 15 7 22 2 11 26 112 41
173 3 14 7 30 9 35 1 6 4 21 7 35 3 14 17 72 32 130 15 58 28 112 30 120 6 31
97 388 115 455 11 39 21 81 24 95 3 14 24 93 46 175 23 83 44 157 45 165 2 8
16 56 30 105 14 50 27 97 29 105 2 8 11 42 21 75 30 110 36 130 39 140 13 48
38 133 43 145 3 8 7 22 9 31 2 9 27 92 55 185 28 93 52 174 53 179 1 6 5 16 9
23 5 6 6 12 3 12 -3 0 2 16 10 35 8 19 12 35 9 35 -3 0 1 13 10 30 8 16 15 31
15 32 -2 4 -1 7 65 213 32 99 62 185 67 191 5 7 8 16 7 20 -1 5 5 26 14 46 10
21 17 44 17 51 0 8 3 17 7 21 4 3 8 12 9 19 1 7 13 41 27 77 14 36 55 144 92
240 37 96 74 191 83 210 8 19 16 37 17 40 1 3 7 18 13 33 7 16 12 34 12 41 0
8 7 19 15 26 8 7 15 19 15 26 0 8 4 22 10 32 5 9 33 67 61 127 28 61 58 118
66 128 9 9 13 17 9 17 -8 0 93 163 108 172 6 4 7 8 1 8 -7 0 -7 3 0 8 6 4 25
24 43 43 l33 36 -48 46 c-70 67 -107 100 -143 128 -18 13 -40 31 -49 39 -16
15 -96 66 -160 102 -119 67 -259 83 -370 42z m-261 -759 c-5 -14 -18 -44 -29
-68 -31 -68 -153 -361 -155 -372 -2 -5 -11 -28 -21 -50 -10 -22 -19 -42 -20
-45 -13 -50 -61 -157 -69 -153 -5 3 -6 1 -2 -5 4 -7 1 -26 -7 -44 -24 -55 -39
-97 -37 -104 1 -4 -2 -10 -7 -13 -7 -5 -29 -55 -37 -86 -3 -9 -19 -52 -33 -85
-3 -8 -7 -19 -9 -25 -2 -11 -70 -190 -83 -220 -5 -11 -14 -33 -19 -50 -6 -16
-27 -77 -47 -135 -20 -58 -39 -112 -43 -120 -3 -8 -7 -19 -7 -25 -1 -5 -5 -17
-8 -25 -24 -53 -154 -460 -149 -464 3 -3 -1 -6 -8 -6 -7 0 -11 -3 -7 -6 3 -4
-1 -23 -9 -43 -9 -20 -17 -43 -18 -51 -1 -8 -5 -22 -8 -30 -10 -24 -106 -340
-165 -540 -13 -47 -30 -101 -35 -120 -6 -19 -11 -37 -11 -40 0 -3 -4 -16 -9
-30 -5 -14 -11 -32 -13 -41 -2 -9 -13 -49 -25 -90 -12 -41 -23 -78 -24 -84 -3
-15 -27 -98 -34 -115 -3 -8 -6 -19 -7 -25 -2 -5 -11 -39 -20 -75 -10 -36 -18
-72 -18 -80 0 -8 -3 -17 -6 -20 -5 -4 -36 -116 -56 -202 -2 -9 -22 -90 -45
-180 -23 -90 -44 -171 -46 -181 -2 -10 -6 -27 -9 -37 -3 -10 -8 -27 -10 -37
-2 -10 -15 -67 -29 -128 -14 -60 -28 -120 -31 -133 -4 -15 -10 -20 -18 -15 -7
4 -19 9 -27 11 -8 1 -19 4 -25 6 -5 1 -28 6 -50 10 -22 4 -47 10 -55 12 -8 3
-16 5 -17 5 -2 0 -17 5 -35 10 -31 9 -316 78 -348 84 -8 2 -33 8 -55 13 -22 6
-53 14 -70 17 -39 8 -60 13 -60 15 0 1 -11 3 -25 6 -14 2 -36 9 -50 14 -14 5
-36 12 -50 15 -14 2 -52 11 -85 20 -33 8 -69 17 -80 19 -11 3 -29 7 -40 10
-17 5 -98 24 -170 41 -71 17 -167 38 -205 46 -25 5 -52 11 -60 13 -8 3 -19 5
-24 5 -5 1 -2 9 6 19 8 9 27 40 43 67 49 90 77 138 137 238 32 55 58 101 58
103 0 3 11 21 24 42 13 20 65 109 117 197 51 88 97 162 101 163 4 2 8 7 8 12
0 8 69 130 80 140 3 3 10 14 16 25 28 51 39 70 45 75 3 3 16 25 30 50 13 25
29 51 36 58 6 6 15 21 18 32 3 11 10 20 15 20 4 0 11 11 14 25 4 14 11 25 16
25 6 0 10 4 10 10 0 5 29 55 65 110 36 55 65 102 65 104 0 2 26 44 59 92 32
49 84 130 116 179 32 50 62 93 67 96 5 3 9 9 8 13 -2 6 146 237 173 271 4 6
52 75 107 155 129 189 121 177 152 216 14 19 41 57 58 84 18 28 36 50 40 50 5
0 11 8 14 18 5 15 19 34 66 89 5 7 10 15 10 17 0 12 352 453 414 519 14 15 26
30 26 32 0 7 111 128 244 265 104 108 261 252 320 295 27 20 44 33 85 68 12 9
23 17 26 17 3 0 24 14 47 30 22 17 42 30 44 30 2 0 -1 -11 -6 -25z"/>
<path d="M10738 13035 c-2 -2 -34 -6 -72 -10 -38 -3 -72 -8 -75 -9 -3 -2 -28
-7 -55 -10 -27 -4 -52 -9 -55 -11 -3 -1 -23 -6 -44 -9 -21 -3 -47 -11 -58 -16
-10 -6 -19 -8 -19 -6 0 3 -18 -1 -40 -9 -22 -8 -44 -15 -48 -16 -20 -4 -33 -9
-112 -39 -47 -17 -89 -32 -95 -34 -5 -1 -27 -10 -49 -19 -21 -9 -40 -17 -42
-17 -8 0 -239 -115 -244 -121 -3 -3 -25 -17 -49 -30 -62 -34 -153 -92 -206
-132 -5 -4 -26 -20 -46 -35 -20 -15 -51 -38 -69 -52 -93 -71 -334 -314 -390
-394 -14 -21 -24 -33 -67 -84 -13 -15 -23 -31 -23 -35 0 -4 -11 -20 -25 -35
-14 -15 -25 -32 -25 -39 0 -6 -4 -13 -8 -15 -13 -5 -133 -214 -137 -238 0 -3
-6 -15 -13 -26 -6 -12 -8 -24 -5 -28 3 -3 0 -6 -7 -6 -7 0 -10 -3 -7 -7 4 -3
3 -11 -2 -17 -5 -6 -17 -38 -26 -71 -10 -33 -21 -65 -26 -71 -5 -6 -7 -13 -4
-16 3 -2 0 -19 -5 -38 -9 -30 -15 -66 -27 -145 -2 -16 -5 -84 -7 -150 -4 -209
44 -453 123 -621 120 -253 250 -362 458 -380 l54 -5 -5 33 c-16 87 -19 145
-19 293 0 154 9 348 18 395 2 12 7 48 10 79 8 66 47 269 70 361 9 36 17 73 18
83 1 9 4 17 7 17 4 0 7 6 8 13 3 42 60 206 112 322 63 142 167 324 227 400 13
17 27 35 31 40 56 76 91 115 175 198 54 53 103 97 107 97 5 0 15 6 22 13 43
42 169 108 276 146 59 21 78 26 132 37 14 2 32 7 40 10 24 8 160 18 245 17
176 -1 267 -32 327 -111 84 -110 89 -246 18 -482 -22 -74 -42 -142 -44 -151
-3 -9 -16 -39 -30 -67 -14 -28 -26 -58 -26 -67 0 -8 -4 -15 -10 -15 -5 0 -9
-3 -8 -7 1 -8 -16 -51 -57 -138 -13 -27 -62 -138 -110 -245 -47 -107 -99 -222
-115 -255 -40 -85 -83 -179 -85 -185 -8 -33 -31 -80 -39 -80 -5 0 -7 -3 -4 -6
3 -3 -11 -42 -32 -87 -37 -79 -71 -157 -75 -167 -1 -3 -14 -32 -29 -65 -15
-33 -34 -73 -41 -90 -7 -16 -24 -55 -38 -85 -14 -30 -48 -107 -77 -170 -28
-63 -59 -131 -68 -150 -9 -19 -17 -37 -17 -40 -1 -3 -16 -36 -33 -74 -18 -38
-32 -70 -32 -71 0 -2 -20 -45 -44 -97 -24 -52 -65 -143 -91 -203 -26 -61 -53
-113 -59 -117 -6 -4 -8 -8 -4 -8 6 0 -13 -45 -89 -210 -34 -73 -55 -120 -58
-130 -2 -7 -21 -49 -108 -240 -74 -164 -109 -240 -112 -250 -4 -12 -40 -91
-76 -168 -22 -46 -39 -86 -39 -87 0 -2 -18 -43 -40 -90 -22 -47 -40 -88 -40
-90 0 -3 -35 -82 -139 -310 -16 -33 -41 -89 -57 -125 -15 -36 -31 -67 -34 -70
-3 -3 -6 -12 -8 -20 -1 -8 -13 -37 -26 -65 -13 -27 -34 -72 -46 -100 -12 -27
-33 -72 -45 -100 -25 -55 -57 -127 -60 -135 -1 -3 -13 -30 -27 -60 -14 -30
-40 -86 -58 -125 -36 -81 -53 -116 -109 -238 -23 -49 -41 -90 -41 -92 0 -3
-36 -81 -106 -230 -15 -33 -28 -62 -29 -65 -1 -3 -10 -23 -20 -45 -10 -22 -19
-42 -20 -45 0 -3 -12 -27 -25 -55 -62 -133 -111 -241 -154 -340 -26 -61 -52
-117 -57 -125 -5 -8 -12 -22 -15 -30 -8 -21 -46 -103 -127 -280 -11 -25 -21
-47 -22 -50 0 -3 -14 -32 -30 -65 -16 -33 -29 -62 -29 -65 -1 -3 -9 -21 -18
-40 -9 -19 -30 -65 -47 -102 -17 -38 -45 -98 -62 -135 -17 -38 -37 -81 -44
-98 -14 -33 -51 -112 -100 -220 -55 -118 -68 -150 -67 -157 1 -5 -2 -8 -8 -8
-6 0 -9 -3 -8 -7 1 -8 -14 -43 -64 -151 -17 -37 -32 -69 -33 -72 -1 -3 -16
-36 -33 -75 -18 -38 -35 -80 -38 -92 -4 -13 -10 -23 -14 -23 -9 0 -23 -39 -21
-57 1 -7 -3 -13 -9 -13 -5 0 -10 -4 -10 -10 0 -5 -16 -44 -35 -86 -19 -41 -35
-78 -35 -81 0 -3 -15 -38 -34 -77 -19 -39 -43 -91 -54 -116 -11 -25 -40 -92
-65 -150 -26 -58 -48 -112 -49 -120 -3 -15 22 -17 72 -6 14 3 38 9 55 12 16 4
39 13 51 20 11 8 24 11 27 7 4 -3 7 -1 7 5 0 7 8 12 18 12 24 0 151 95 233
175 38 36 69 68 69 71 0 2 8 12 18 22 38 40 90 108 146 190 32 48 62 89 67 90
5 2 9 8 9 12 0 5 31 60 68 122 38 62 102 174 142 248 40 74 77 141 82 148 6 6
7 12 3 12 -4 0 -3 6 3 13 13 15 142 275 193 387 18 41 37 78 42 81 5 3 9 10 9
15 1 13 8 33 36 94 49 109 194 436 209 470 9 19 29 64 45 100 17 36 34 74 38
85 8 22 14 36 65 149 19 43 35 85 35 92 0 8 5 14 10 14 6 0 10 6 10 13 0 11
91 228 130 312 11 23 33 77 34 85 1 3 4 10 8 15 3 6 36 82 72 170 37 88 73
174 81 190 13 28 36 84 40 95 3 10 26 64 54 129 16 36 56 134 90 216 35 83 67
158 72 167 5 10 9 25 9 33 0 8 4 15 10 15 5 0 9 3 8 8 -2 6 70 188 122 307 18
43 32 77 35 85 1 3 9 23 19 45 10 22 19 45 20 50 2 6 8 21 13 35 100 237 152
363 184 445 22 55 46 114 54 130 8 17 51 118 95 225 45 107 85 204 90 215 44
100 110 262 110 272 0 7 4 13 8 13 5 0 9 6 9 13 0 6 10 33 22 59 19 44 42 95
46 108 1 3 6 16 12 30 22 52 36 85 38 90 0 3 11 27 23 54 12 27 22 51 22 53 0
3 6 19 14 36 51 112 60 133 62 142 3 11 125 299 151 355 9 19 16 41 16 48 0 6
4 12 9 12 4 0 7 3 6 8 -1 4 5 23 14 42 9 19 33 76 53 125 37 88 46 109 99 229
14 32 26 64 26 71 0 8 4 15 10 17 5 2 11 12 13 23 1 11 7 27 12 35 5 8 10 20
12 25 2 11 145 342 170 395 9 19 17 40 19 45 1 6 12 33 25 60 13 28 24 55 25
60 2 9 48 113 79 180 l15 30 1 -40 c0 -22 2 -94 3 -161 2 -67 5 -125 8 -130 8
-14 4 -811 -4 -819 -4 -4 -3 -15 2 -25 5 -10 7 -20 3 -23 -3 -4 -7 -64 -9
-134 -2 -119 -6 -221 -19 -463 -2 -52 -7 -158 -10 -235 -16 -441 -34 -830 -50
-1115 -3 -52 -7 -147 -10 -210 -3 -63 -7 -155 -10 -205 -2 -49 -7 -139 -10
-200 -3 -60 -8 -153 -11 -205 -3 -52 -7 -138 -9 -190 -2 -52 -4 -95 -5 -95 -1
0 -6 -97 -14 -280 -3 -60 -6 -110 -6 -110 -1 0 -2 -21 -3 -48 -1 -26 2 -47 6
-47 5 0 5 -6 0 -12 -8 -13 -8 -26 -16 -400 -3 -125 -8 -232 -12 -237 -3 -6 -2
-11 3 -11 5 0 9 -7 9 -15 0 -8 -4 -15 -8 -15 -4 0 -3 -16 1 -34 4 -19 5 -37 2
-40 -7 -8 -6 -362 2 -375 4 -6 3 -11 -3 -11 -5 0 -8 -8 -6 -19 4 -22 8 -112 5
-126 -1 -5 -1 -14 0 -20 3 -12 12 -195 14 -272 0 -29 3 -53 6 -53 3 0 5 -15 6
-32 0 -38 11 -142 18 -178 3 -14 7 -45 10 -70 19 -156 67 -304 131 -399 40
-61 126 -140 157 -145 7 -1 18 -4 23 -8 38 -23 196 -41 223 -24 6 4 20 9 29
11 10 2 34 10 55 19 35 15 38 21 73 128 20 62 39 120 42 128 3 8 7 20 9 25 1
6 17 48 34 95 18 47 33 90 35 95 1 6 6 19 10 30 6 16 89 237 131 350 4 11 6
23 6 28 -1 4 2 7 7 7 5 0 12 16 15 35 4 19 10 35 14 35 4 0 8 8 9 18 1 14 107
287 142 367 13 28 36 89 36 95 0 3 6 15 13 26 6 12 8 24 5 28 -3 3 -1 6 5 6 7
0 12 9 12 19 0 11 5 23 10 26 6 3 10 12 10 19 0 8 10 35 22 62 12 27 22 51 23
54 0 3 8 24 17 45 10 22 40 96 69 165 28 69 57 139 64 155 81 186 117 272 118
283 0 6 4 12 9 12 4 0 7 3 6 8 -1 4 4 18 9 32 20 45 36 85 38 90 4 11 26 63
45 105 11 25 29 64 39 88 11 23 19 44 19 47 1 5 56 123 72 152 6 10 10 22 10
27 0 6 18 47 39 93 83 176 109 237 103 242 -3 3 0 6 6 6 6 0 14 10 18 22 6 21
39 94 103 233 16 33 39 83 51 110 12 28 37 79 53 115 17 36 32 67 32 70 0 3 7
16 15 30 8 14 15 27 15 30 1 3 17 39 37 80 19 41 59 125 87 185 28 61 56 117
61 125 6 8 15 26 20 39 26 60 206 419 223 444 10 15 16 27 13 27 -2 0 7 21 21
48 14 26 46 88 71 137 26 50 51 93 57 97 5 4 6 8 1 8 -4 0 0 12 10 28 16 24
52 91 152 282 76 144 87 165 94 168 5 2 8 12 8 22 0 10 4 20 8 22 5 2 32 48
62 103 29 55 56 102 60 105 3 3 14 21 23 40 10 19 43 76 74 125 80 129 90 145
114 190 12 22 25 42 28 45 3 3 35 50 71 105 36 55 67 102 70 105 3 3 11 17 19
33 8 15 18 27 23 27 4 0 8 7 8 15 0 8 5 15 10 15 6 0 10 5 10 10 0 6 5 16 10
23 11 13 44 57 130 175 29 39 54 72 56 72 2 0 -1 -11 -6 -25 -5 -14 -9 -29 -9
-33 1 -4 0 -9 -1 -12 -1 -3 -3 -12 -5 -20 -1 -8 -8 -35 -15 -60 -7 -25 -14
-52 -16 -60 -3 -13 -10 -39 -29 -110 -29 -112 -98 -377 -99 -385 -1 -5 -5 -16
-10 -23 -4 -7 -5 -16 -2 -19 3 -3 1 -12 -5 -20 -6 -7 -9 -13 -6 -13 3 0 -3
-28 -13 -62 -11 -34 -17 -65 -14 -70 3 -4 1 -8 -3 -8 -5 0 -9 -8 -10 -17 0
-10 -3 -27 -6 -38 -42 -157 -90 -346 -94 -370 -3 -16 -9 -38 -14 -47 -5 -10
-7 -18 -5 -18 3 0 1 -11 -4 -25 -11 -29 -20 -67 -24 -106 -2 -14 -9 -35 -15
-47 -6 -12 -10 -22 -7 -22 3 0 0 -15 -5 -32 -14 -45 -20 -70 -23 -93 -2 -11
-5 -21 -6 -22 -3 -3 -2 -2 -15 -58 -4 -22 -10 -44 -11 -50 -2 -5 -6 -22 -9
-37 -3 -15 -10 -39 -15 -53 -5 -14 -8 -25 -5 -25 2 0 -2 -18 -10 -40 -8 -22
-14 -43 -14 -45 2 -14 -34 -164 -46 -196 -8 -20 -12 -39 -9 -41 2 -3 0 -16 -5
-30 -5 -14 -12 -38 -15 -54 -4 -26 -9 -50 -21 -104 -2 -8 -4 -15 -5 -15 -2 0
-9 -28 -15 -60 -2 -11 -10 -46 -18 -77 -8 -32 -13 -58 -10 -58 2 0 -1 -8 -6
-17 -5 -10 -11 -31 -14 -48 -3 -16 -15 -70 -27 -120 -12 -49 -23 -97 -25 -105
-2 -8 -10 -44 -19 -80 -15 -66 -25 -109 -31 -145 -2 -11 -8 -35 -14 -54 -6
-19 -8 -38 -5 -42 3 -5 1 -9 -5 -9 -5 0 -8 -8 -6 -17 1 -10 0 -22 -4 -28 -3
-5 -6 -16 -8 -24 -1 -7 -7 -34 -13 -60 -6 -25 -13 -60 -15 -76 -2 -17 -4 -30
-5 -30 -2 0 -6 -20 -15 -65 -3 -19 -10 -51 -15 -70 -5 -19 -11 -52 -14 -72 -3
-21 -11 -59 -17 -85 -6 -27 -19 -97 -30 -158 -11 -60 -22 -121 -24 -135 -15
-79 -28 -158 -30 -180 -1 -14 -7 -50 -14 -81 -6 -31 -11 -60 -10 -65 1 -5 0
-12 -1 -16 -1 -5 -4 -17 -5 -28 -1 -11 -3 -21 -5 -22 -1 -2 -3 -16 -5 -33 -3
-27 -10 -83 -21 -160 -2 -16 -6 -50 -9 -75 -3 -25 -7 -56 -10 -70 -3 -14 -7
-52 -10 -85 -3 -33 -8 -71 -10 -85 -2 -14 -7 -56 -10 -95 -4 -38 -9 -78 -11
-90 -2 -11 -6 -55 -9 -98 -3 -43 -8 -95 -10 -115 -7 -72 -20 -261 -31 -477
-16 -278 -9 -873 11 -1010 2 -16 6 -53 9 -82 3 -28 8 -57 10 -65 3 -7 7 -29
10 -49 11 -75 61 -244 79 -267 5 -6 6 -12 2 -12 -5 0 0 -9 9 -19 10 -11 15
-25 11 -30 -3 -6 -1 -11 4 -11 6 0 11 -7 11 -15 0 -8 4 -15 9 -15 5 0 12 -9
16 -20 10 -31 94 -114 155 -152 65 -42 139 -75 195 -89 22 -5 48 -12 58 -14
71 -20 189 -33 322 -37 48 -2 59 1 56 12 -2 8 -8 31 -13 50 -5 19 -10 44 -12
55 -2 11 -19 67 -39 125 -40 118 -75 248 -83 306 -1 12 -5 39 -9 60 -24 145
-24 570 0 929 2 39 7 113 10 165 3 52 8 111 10 130 2 19 6 67 10 105 3 39 8
84 9 100 2 17 6 65 10 107 4 42 8 85 10 95 2 10 7 53 10 95 4 42 9 87 12 100
2 13 6 43 9 68 2 25 6 63 9 85 3 22 8 65 11 95 3 30 8 66 10 80 4 26 13 92 21
170 8 71 12 95 14 95 2 0 10 78 13 123 1 17 4 32 7 32 3 0 6 12 6 28 0 27 10
103 19 152 5 32 15 96 19 135 4 31 14 97 20 130 2 11 7 43 10 70 4 28 9 61 11
75 3 14 7 41 10 60 2 19 6 46 10 60 3 14 7 43 10 65 2 22 9 66 15 97 6 32 10
63 9 70 -1 7 1 20 4 28 5 13 14 62 33 185 12 74 15 93 21 115 4 14 7 30 8 35
1 6 5 33 10 60 4 28 9 59 11 70 1 11 7 45 13 75 7 30 14 71 17 90 3 19 7 43
10 52 3 10 7 29 10 43 2 14 7 37 10 53 3 15 7 38 9 52 3 25 33 186 42 225 5
26 12 60 17 88 5 25 17 95 21 117 2 8 8 35 14 60 5 25 13 61 16 80 3 19 8 42
10 50 2 8 6 31 9 50 3 19 8 44 10 55 22 100 108 514 110 530 1 11 5 26 9 33 5
6 6 12 3 12 -2 0 2 27 10 60 7 32 16 74 19 92 4 18 11 53 16 78 6 25 12 52 14
60 10 50 56 259 62 280 10 40 13 54 18 80 2 14 9 45 16 70 6 25 13 53 15 63 2
9 6 27 10 40 3 12 7 33 10 47 3 14 14 59 25 102 10 42 19 86 19 97 0 12 4 21
9 21 5 0 9 10 9 23 0 29 42 189 53 203 5 6 7 13 4 16 -3 3 15 79 39 170 25 90
47 175 50 189 3 13 12 48 20 77 8 28 11 52 8 52 -4 0 -2 4 4 8 5 4 16 30 22
57 7 28 14 58 17 68 4 19 38 132 87 292 31 101 113 347 125 375 3 8 7 17 8 20
1 3 7 18 13 33 7 16 12 31 12 35 0 4 25 72 56 152 30 80 56 150 58 157 1 7 5
16 9 19 4 4 7 16 7 26 0 10 5 18 12 18 6 0 9 3 5 6 -3 4 0 22 8 40 l14 33 -57
21 c-72 27 -262 70 -262 59 0 -5 -10 -5 -22 -1 -13 5 -43 7 -68 6 -170 -10
-280 -92 -475 -355 -31 -41 -60 -80 -65 -86 -6 -7 -23 -32 -39 -55 -59 -90
-126 -193 -131 -203 -3 -5 -26 -42 -53 -82 -26 -39 -47 -74 -47 -78 0 -3 -9
-15 -20 -27 -11 -12 -26 -34 -32 -50 -7 -15 -16 -28 -20 -28 -5 0 -8 -5 -8
-10 0 -6 -9 -23 -19 -38 -46 -65 -151 -233 -151 -241 0 -5 -4 -11 -8 -13 -5
-1 -23 -28 -41 -58 -44 -74 -138 -222 -151 -237 -5 -7 -10 -14 -10 -17 0 -2
-40 -70 -90 -150 -49 -81 -90 -151 -90 -156 0 -6 -4 -10 -9 -10 -5 0 -11 -6
-13 -12 -3 -14 -196 -341 -234 -399 -13 -19 -24 -40 -24 -47 0 -7 -4 -12 -10
-12 -5 0 -10 -4 -10 -9 0 -9 -69 -131 -80 -141 -3 -3 -14 -23 -26 -45 -11 -22
-73 -131 -137 -243 -64 -112 -117 -208 -117 -213 0 -5 -5 -9 -12 -9 -6 0 -8
-3 -5 -7 4 -3 2 -12 -5 -20 -15 -18 -77 -132 -85 -155 -3 -10 -9 -18 -14 -18
-5 0 -9 -7 -9 -15 0 -8 -5 -15 -12 -15 -6 0 -8 -3 -5 -7 4 -3 3 -11 -2 -17 -5
-6 -29 -49 -53 -96 -48 -90 -89 -166 -118 -215 -10 -16 -47 -86 -82 -155 -36
-69 -79 -150 -96 -181 -49 -91 -82 -158 -81 -165 0 -4 -3 -10 -8 -13 -5 -3
-26 -42 -47 -86 -22 -44 -43 -83 -48 -86 -6 -3 -9 -9 -9 -13 1 -3 -37 -86 -85
-184 -184 -376 -208 -427 -209 -432 -2 -10 -30 -65 -35 -70 -3 -3 -6 -9 -7
-15 -1 -5 -22 -53 -46 -105 -81 -172 -114 -244 -147 -320 -18 -41 -48 -108
-66 -148 -19 -41 -34 -75 -34 -77 0 -1 -8 -20 -17 -41 -9 -22 -17 -41 -18 -44
-1 -3 -10 -23 -20 -45 -22 -50 -38 -88 -39 -95 -1 -3 -29 -75 -63 -160 -34
-85 -80 -207 -103 -270 -22 -63 -44 -124 -49 -135 -6 -11 -37 -105 -71 -210
-34 -104 -65 -197 -68 -205 -3 -8 -6 -20 -7 -25 -2 -6 -10 -37 -20 -70 -21
-71 -24 -83 -26 -93 0 -4 -7 -23 -15 -42 -8 -19 -15 -37 -14 -40 0 -3 -5 -28
-11 -57 -12 -53 -29 -65 -24 -18 2 14 6 98 10 188 10 229 11 253 30 567 11
191 22 362 30 475 4 44 7 110 8 148 1 37 4 67 7 67 3 0 6 30 7 68 5 147 8 202
13 202 3 0 5 24 6 53 0 28 4 102 8 162 4 61 9 137 11 170 2 33 6 94 9 135 3
41 8 118 11 170 3 52 8 122 10 155 2 33 7 107 10 165 3 58 8 130 9 160 2 30 7
102 10 160 4 58 9 137 12 175 7 97 15 235 19 325 2 41 6 129 10 195 3 66 8
196 10 290 2 93 5 170 5 170 1 0 3 161 4 358 1 215 -2 357 -7 357 -6 0 -6 5 0
13 5 6 8 37 6 67 -1 30 -5 120 -8 200 -8 199 -19 374 -29 460 -3 25 -8 77 -11
115 -4 39 -8 81 -10 94 -3 13 -7 45 -10 70 -8 58 -33 208 -40 241 -4 14 -8 36
-11 50 -2 14 -7 36 -10 50 -3 14 -7 32 -9 40 -12 52 -38 149 -46 170 -5 14
-11 34 -13 45 -8 38 -66 188 -78 203 -7 8 -12 16 -10 16 2 1 -10 29 -25 62
-60 125 -165 251 -288 344 -59 45 -126 84 -195 113 -36 16 -132 45 -172 53
-13 2 -34 7 -48 10 -26 6 -346 15 -352 9z"/>
</g>
</svg>
