<svg width="1024" height="629" viewBox="0 0 1024 629" fill="none" xmlns="http://www.w3.org/2000/svg">
<rect x="-6.10352e-05" width="1024" height="629" fill="#9E917A"/>
<path d="M33.9469 31.2469C34.6546 27.9492 40.2146 24.4267 44.5615 24.3517C44.8648 24.3517 45.1681 24.2768 45.3702 24.1269C45.5724 24.0519 45.7746 23.977 45.8757 23.7521C47.3921 21.6536 46.5833 20.0048 44.0561 18.6557C41.1244 17.0819 36.4742 18.6557 34.1491 20.0797C28.2858 23.6772 22.3214 29.8977 22.6247 35.8186C21.6138 39.7909 21.816 44.0628 23.3323 47.5853C24.3432 49.8337 27.2749 50.9579 30.3076 51.1078C33.3404 51.2578 39.608 51.9322 42.3375 50.5833C45.067 49.2341 45.2692 46.611 45.5724 44.3627C45.8757 41.8895 46.7855 37.2426 43.955 35.294C41.1244 33.4203 33.0371 35.4439 33.9469 31.2469Z" fill="#FBF2E1"/>
<path d="M67.307 31.2469C68.0147 27.9492 73.5745 24.4267 77.9216 24.3517C78.2249 24.3517 78.5282 24.2768 78.7304 24.1269C78.9327 24.0519 79.1347 23.977 79.236 23.7521C80.7523 21.6536 79.9436 20.0048 77.4163 18.6557C74.4847 17.0819 69.8345 18.6557 67.5092 20.0797C61.6459 23.6772 55.6815 29.8978 55.9848 35.8186C54.9739 39.7909 55.1761 44.0628 56.6923 47.5853C57.7032 49.8337 60.6348 50.9579 63.6678 51.1078C66.7005 51.2578 72.9681 51.9322 75.6976 50.5833C78.4269 49.2341 78.6293 46.611 78.9325 44.3627C79.2358 41.8895 80.1456 37.2426 77.3151 35.294C74.4845 33.4203 66.2961 35.4439 67.307 31.2469Z" fill="#FBF2E1"/>
</svg>
